HIERARCHY
ROOT Hips
{
	OFFSET 0.000000 0.000000 0.000000
	CHANNELS 6 Xposition Yposition Zposition Zrotation Yrotation Xrotation 
	JOINT LHipJoint
	{
		OFFSET 0.000000 0.000000 0.000000
		CHANNELS 3 Zrotation Yrotation Xrotation
		JOINT LeftUpLeg
		{
			OFFSET 1.363060 -1.794630 0.839290
			CHANNELS 3 Zrotation Yrotation Xrotation
			JOINT LeftLeg
			{
				OFFSET 2.448110 -6.726130 0.000000
				CHANNELS 3 Zrotation Yrotation Xrotation
				JOINT LeftFoot
				{
					OFFSET 2.562200 -7.039590 0.000000
					CHANNELS 3 Zrotation Yrotation Xrotation
					JOINT LeftToeBase
					{
						OFFSET 0.157640 -0.433110 2.322550
						CHANNELS 3 Zrotation Yrotation Xrotation
						End Site
						{
							OFFSET 0.000000 0.000000 0.000000
						}
					}
				}
			}
		}
	}
	JOINT RHipJoint
	{
		OFFSET 0.000000 0.000000 0.000000
		CHANNELS 3 Zrotation Yrotation Xrotation
		JOINT RightUpLeg
		{
			OFFSET -1.305520 -1.794630 0.839290
			CHANNELS 3 Zrotation Yrotation Xrotation
			JOINT RightLeg
			{
				OFFSET -2.542530 -6.985550 0.000000
				CHANNELS 3 Zrotation Yrotation Xrotation
				JOINT RightFoot
				{
					OFFSET -2.568260 -7.056230 0.000000
					CHANNELS 3 Zrotation Yrotation Xrotation
					JOINT RightToeBase
					{
						OFFSET -0.164730 -0.452590 2.363150
						CHANNELS 3 Zrotation Yrotation Xrotation
						End Site
						{
							OFFSET 0.000000 0.000000 0.000000
						}
					}
				}
			}
		}
	}
	JOINT LowerBack
	{
		OFFSET 0.000000 0.000000 0.000000
		CHANNELS 3 Zrotation Yrotation Xrotation
		JOINT Spine
		{
			OFFSET 0.028270 2.035590 -0.193380
			CHANNELS 3 Zrotation Yrotation Xrotation
			JOINT Spine1
			{
				OFFSET 0.056720 2.048850 -0.042750
				CHANNELS 3 Zrotation Yrotation Xrotation
				JOINT Neck
				{
					OFFSET 0.000000 0.000000 0.000000
					CHANNELS 3 Zrotation Yrotation Xrotation
					JOINT Neck1
					{
						OFFSET -0.054170 1.746240 0.172020
						CHANNELS 3 Zrotation Yrotation Xrotation
						JOINT Head
						{
							OFFSET 0.104070 1.761360 -0.123970
							CHANNELS 3 Zrotation Yrotation Xrotation
							End Site
							{
								OFFSET 0.000000 0.000000 0.000000
							}
						}
					}
				}
				JOINT LeftShoulder
				{
					OFFSET 0.000000 0.000000 0.000000
					CHANNELS 3 Zrotation Yrotation Xrotation
					JOINT LeftArm
					{
						OFFSET 3.362410 1.200890 -0.311210
						CHANNELS 3 Zrotation Yrotation Xrotation
						JOINT LeftForeArm
						{
							OFFSET 4.983000 -0.000000 -0.000000
							CHANNELS 3 Zrotation Yrotation Xrotation
							JOINT LeftHand
							{
								OFFSET 3.483560 -0.000000 -0.000000
								CHANNELS 3 Zrotation Yrotation Xrotation
								JOINT LeftFingerBase
								{
									OFFSET 0.000000 0.000000 0.000000
									CHANNELS 3 Zrotation Yrotation Xrotation
									JOINT LeftHandIndex1
									{
										OFFSET 0.715260 -0.000000 -0.000000
										CHANNELS 3 Zrotation Yrotation Xrotation
										End Site
										{
											OFFSET 0.000000 0.000000 0.000000
										}
									}
								}
								JOINT LThumb
								{
									OFFSET 0.000000 0.000000 0.000000
									CHANNELS 3 Zrotation Yrotation Xrotation
									End Site
									{
										OFFSET 0.000000 0.000000 0.000000
									}
								}
							}
						}
					}
				}
				JOINT RightShoulder
				{
					OFFSET 0.000000 0.000000 0.000000
					CHANNELS 3 Zrotation Yrotation Xrotation
					JOINT RightArm
					{
						OFFSET -3.136600 1.374050 -0.404650
						CHANNELS 3 Zrotation Yrotation Xrotation
						JOINT RightForeArm
						{
							OFFSET -5.241900 -0.000000 -0.000000
							CHANNELS 3 Zrotation Yrotation Xrotation
							JOINT RightHand
							{
								OFFSET -3.444170 -0.000000 -0.000000
								CHANNELS 3 Zrotation Yrotation Xrotation
								JOINT RightFingerBase
								{
									OFFSET 0.000000 0.000000 0.000000
									CHANNELS 3 Zrotation Yrotation Xrotation
									JOINT RightHandIndex1
									{
										OFFSET -0.622530 -0.000000 -0.000000
										CHANNELS 3 Zrotation Yrotation Xrotation
										End Site
										{
											OFFSET 0.000000 0.000000 0.000000
										}
									}
								}
								JOINT RThumb
								{
									OFFSET 0.000000 0.000000 0.000000
									CHANNELS 3 Zrotation Yrotation Xrotation
									End Site
									{
										OFFSET 0.000000 0.000000 0.000000
									}
								}
							}
						}
					}
				}
			}
		}
	}
}
MOTION
Frames: 5
Frame Time: 0.008333
-0.136799 17.121884 -1.595624 128.754441 -76.405800 -131.041118 -4.948184 -5.508086 0.726601 -11.327283 -1.893027 -87.206033 -4.167688 -1.143889 -0.408552 0.421667 5.779647 16.560228 3.293700 0.000000 -53.385200 11.106049 1.887698 -5.389907 3.611143 1.953450 -0.385412 1.249189 -1.908475 19.453830 -1.037823 -3.191109 -8.945404 -0.039700 0.000000 -44.774300 -11.357450 -0.412359 7.399827 -2.941829 0.229162 -2.072449 -6.654453 0.174223 -1.747390 9.764427 -3.062695 -4.435761 -3.994702 -0.320333 0.614377 0.000000 0.000000 0.000000 -6.247724 3.149262 2.097302 -73.492561 3.449780 8.574433 -3.081298 -23.915615 0.001705 3.104784 -3.116919 -0.084819 -0.022562 -0.002185 -0.000000 0.000000 0.000000 0.000000 0.000000 0.000000 0.000000 17.341242 0.995426 1.122387 74.120403 13.583597 10.797085 2.635094 25.722531 0.010289 0.786607 9.192795 0.061293 0.044278 -0.150859 0.000000 0.000000 0.000000 0.000000 0.000000 0.000000 0.000000 
-0.134197 17.112568 -1.597198 129.418050 -76.396296 -131.827028 -5.149980 -5.473613 0.659340 -10.344793 -1.723335 -86.708904 -3.678679 -0.710453 2.978686 0.949795 8.840574 17.350071 4.711400 0.000000 -50.292801 11.043417 1.855977 -5.346483 3.829024 2.103779 -0.377162 1.264640 -1.922249 19.687935 -1.051144 -3.251377 -9.037937 -0.032599 -0.000000 -45.063400 -11.158148 -0.444371 7.375390 -2.901867 0.194064 -2.069741 -6.676400 0.139654 -1.716489 9.788107 -3.118084 -4.453656 -4.024497 -0.322286 0.611608 0.000000 0.000000 0.000000 -6.312052 3.339793 2.071777 -73.540664 3.473680 8.775680 -3.067056 -24.169365 0.001726 3.006194 -3.206128 -0.084518 -0.022255 -0.002295 -0.000000 0.000000 0.000000 0.000000 0.000000 0.000000 0.000000 17.527118 0.920806 1.093875 74.184210 13.570746 11.174641 2.661911 25.683119 0.010741 1.105494 9.125693 0.086891 0.042494 -0.148744 0.000000 0.000000 0.000000 0.000000 0.000000 0.000000 0.000000 
-0.131282 17.104141 -1.600598 129.561191 -76.444904 -132.168191 -5.311425 -5.483320 0.562498 -9.125222 -1.728702 -85.802441 -3.163584 -0.329052 6.171565 1.401673 11.420029 18.577863 6.040899 -0.000000 -47.117700 10.999555 1.831839 -5.353927 3.962674 2.045387 -0.230845 1.277395 -1.934292 19.805417 -1.053168 -3.257449 -9.081268 -0.028500 0.000000 -45.504000 -11.009431 -0.489943 7.439364 -2.874853 0.145234 -2.048934 -6.699400 0.092998 -1.699363 9.831104 -3.211666 -4.466156 -4.053628 -0.324186 0.609190 0.000000 0.000000 0.000000 -6.297485 3.398962 2.054031 -73.596210 3.506161 8.993646 -3.057712 -24.338882 0.001752 2.909878 -3.283351 -0.083817 -0.022073 -0.002419 -0.000000 0.000000 0.000000 0.000000 0.000000 0.000000 0.000000 17.727750 0.794739 1.070827 74.268494 13.516197 11.420995 2.676035 25.671750 0.010995 1.310583 9.123944 0.103590 0.041004 -0.147384 0.000000 0.000000 0.000000 0.000000 0.000000 0.000000 0.000000 
-0.128386 17.097417 -1.606035 129.130959 -76.566827 -131.986015 -5.437733 -5.516744 0.447580 -7.855451 -1.964028 -84.567416 -2.682544 -0.009146 9.108642 1.725426 13.263978 20.054354 7.123800 -0.000000 -44.537999 10.982277 1.810481 -5.403587 3.996307 1.753727 0.005547 1.287927 -1.942818 19.806327 -1.039623 -3.186797 -9.071445 -0.027600 -0.000000 -46.109800 -10.905714 -0.553613 7.568316 -2.858934 0.078434 -2.014944 -6.722548 0.029645 -1.694557 9.888288 -3.335714 -4.469442 -4.081516 -0.326061 0.608579 0.000000 0.000000 0.000000 -6.213179 3.328078 2.044065 -73.649830 3.544392 9.231746 -3.054348 -24.418215 0.001780 2.809599 -3.340297 -0.082315 -0.022053 -0.002565 -0.000000 0.000000 0.000000 0.000000 0.000000 0.000000 0.000000 17.933549 0.620542 1.050349 74.379290 13.406298 11.524985 2.677122 25.679550 0.011054 1.389994 9.191893 0.110990 0.039927 -0.146731 0.000000 0.000000 0.000000 0.000000 0.000000 0.000000 0.000000 
-0.125916 17.093019 -1.613488 128.134756 -76.768778 -131.257884 -5.540774 -5.552202 0.327064 -6.694912 -2.443262 -83.128368 -2.273809 0.258141 11.804182 1.901785 14.233153 21.578280 7.809200 0.000000 -42.940200 10.996042 1.786680 -5.481570 3.931135 1.237891 0.281326 1.296745 -1.945963 19.697040 -1.009517 -3.034099 -9.007361 -0.029500 -0.000001 -46.874400 -10.832715 -0.637070 7.732062 -2.850471 -0.008029 -1.973909 -6.745077 -0.052580 -1.698887 9.953207 -3.482425 -4.461832 -4.107421 -0.327913 0.610748 0.000000 0.000000 0.000000 -6.072916 3.141993 2.040511 -73.692569 3.582294 9.490025 -3.057615 -24.405446 0.001811 2.700012 -3.369472 -0.079812 -0.022242 -0.002740 -0.000000 0.000000 0.000000 0.000000 0.000000 0.000000 0.000000 18.133262 0.404066 1.029384 74.521163 13.231253 11.484153 2.666131 25.696246 0.010930 1.343399 9.326569 0.108690 0.039335 -0.146658 0.000000 0.000000 0.000000 0.000000 0.000000 0.000000 0.000000 
